ffmpeg started on 2016-11-26 at 14:56:06
Report written to "Output/NVENCh264/results/ffmpeg/sintelll5000k.log"
Command line:
Tools/ffmpeg/ffmpeg -benchmark -y -i Input/y4m/sintel.y4m -c:v h264_nvenc -preset ll -b:v 5000k -an Output/NVENCh264/encoded/sintelll5000k.mkv
ffmpeg version N-82227-gdb23fde Copyright (c) 2000-2016 the FFmpeg developers
  built with gcc 5.4.0 (Ubuntu 5.4.0-6ubuntu1~16.04.2) 20160609
  configuration: --prefix=/home/jaroslav/ffmpeg_build --pkg-config-flags=--static --extra-cflags=-I/home/jaroslav/ffmpeg_build/include --extra-ldflags=-L/home/jaroslav/ffmpeg_build/lib --bindir=/home/jaroslav/bin --enable-gpl --enable-libass --enable-libfdk-aac --enable-libfreetype --enable-libmp3lame --enable-libopus --enable-libtheora --enable-libvorbis --enable-libvpx --enable-libx264 --enable-libx265 --enable-nvenc --enable-libmfx --enable-libxvid --enable-libgsm --enable-libopencore-amrnb --enable-version3 --enable-nonfree
  libavutil      55. 35.100 / 55. 35.100
  libavcodec     57. 66.101 / 57. 66.101
  libavformat    57. 57.100 / 57. 57.100
  libavdevice    57.  2.100 / 57.  2.100
  libavfilter     6. 66.100 /  6. 66.100
  libswscale      4.  3.100 /  4.  3.100
  libswresample   2.  4.100 /  2.  4.100
  libpostproc    54.  2.100 / 54.  2.100
Input #0, yuv4mpegpipe, from 'Input/y4m/sintel.y4m':
  Duration: 00:00:20.83, start: 0.000000, bitrate: 2057307 kb/s
    Stream #0:0: Video: rawvideo (I420 / 0x30323449), yuv420p(progressive), 4096x1744, SAR 1:1 DAR 256:109, 24 fps, 24 tbr, 24 tbn, 24 tbc
[h264_nvenc @ 0x3dca1c0] The variable bitrate rate-control requires the 'qmin' and/or 'qmax' option set.
Output #0, matroska, to 'Output/NVENCh264/encoded/sintelll5000k.mkv':
  Metadata:
    encoder         : Lavf57.57.100
    Stream #0:0: Video: h264 (h264_nvenc) (Main) (H264 / 0x34363248), yuv420p, 4096x1744 [SAR 1:1 DAR 256:109], q=-1--1, 5000 kb/s, 24 fps, 1k tbn, 24 tbc
    Metadata:
      encoder         : Lavc57.66.101 h264_nvenc
    Side data:
      cpb: bitrate max/min/avg: 0/0/5000000 buffer size: 10000000 vbv_delay: -1
Stream mapping:
  Stream #0:0 -> #0:0 (rawvideo (native) -> h264 (h264_nvenc))
Press [q] to stop, [?] for help
frame=    3 fps=0.0 q=0.0 size=       0kB time=00:00:00.00 bitrate=N/A speed=   0x    frame=   18 fps= 13 q=0.0 size=       0kB time=00:00:00.00 bitrate=N/A speed=   0x    frame=   39 fps= 21 q=41.0 size=       1kB time=00:00:00.33 bitrate=  17.9kbits/s speed=0.18x    frame=   60 fps= 25 q=42.0 size=       1kB time=00:00:01.20 bitrate=   4.9kbits/s speed=0.511x    frame=   81 fps= 28 q=40.0 size=       1kB time=00:00:02.08 bitrate=   2.9kbits/s speed=0.723x    frame=  102 fps= 30 q=41.0 size=       1kB time=00:00:02.95 bitrate=   2.0kbits/s speed=0.872x    frame=  123 fps= 32 q=39.0 size=       1kB time=00:00:03.83 bitrate=   1.6kbits/s speed=0.983x    frame=  144 fps= 33 q=35.0 size=       1kB time=00:00:04.70 bitrate=   1.3kbits/s speed=1.07x    frame=  165 fps= 33 q=40.0 size=    2813kB time=00:00:05.58 bitrate=4126.6kbits/s speed=1.13x    frame=  179 fps= 31 q=39.0 size=    2813kB time=00:00:06.16 bitrate=3735.8kbits/s speed=1.06x    frame=  180 fps= 20 q=39.0 size=    2813kB time=00:00:06.20 bitrate=3711.2kbits/s speed=0.679x    frame=  181 fps= 16 q=39.0 size=    2813kB time=00:00:06.25 bitrate=3686.2kbits/s speed=0.552x    frame=  202 fps= 17 q=36.0 size=    2813kB time=00:00:07.12 bitrate=3233.6kbits/s speed=0.602x    frame=  223 fps= 18 q=36.0 size=    2813kB time=00:00:08.00 bitrate=2880.0kbits/s speed=0.648x    frame=  244 fps= 19 q=38.0 size=    2813kB time=00:00:08.87 bitrate=2596.1kbits/s speed=0.69x    frame=  265 fps= 20 q=36.0 size=    2813kB time=00:00:09.75 bitrate=2363.1kbits/s speed=0.729x    frame=  286 fps= 21 q=35.0 size=    5903kB time=00:00:10.62 bitrate=4551.1kbits/s speed=0.764x    frame=  307 fps= 21 q=35.0 size=    6630kB time=00:00:11.50 bitrate=4722.4kbits/s speed=0.798x    frame=  328 fps= 22 q=33.0 size=    6630kB time=00:00:12.37 bitrate=4388.5kbits/s speed=0.829x    frame=  349 fps= 23 q=32.0 size=    6630kB time=00:00:13.25 bitrate=4098.8kbits/s speed=0.858x    frame=  370 fps= 23 q=29.0 size=    6630kB time=00:00:14.12 bitrate=3844.9kbits/s speed=0.886x    frame=  391 fps= 24 q=29.0 size=    6630kB time=00:00:15.00 bitrate=3620.6kbits/s speed=0.912x    frame=  412 fps= 24 q=32.0 size=    6630kB time=00:00:15.87 bitrate=3421.1kbits/s speed=0.936x    frame=  433 fps= 25 q=35.0 size=    9770kB time=00:00:16.75 bitrate=4778.1kbits/s speed=0.958x    frame=  454 fps= 25 q=34.0 size=   10591kB time=00:00:17.62 bitrate=4922.3kbits/s speed=0.979x    frame=  475 fps= 26 q=33.0 size=   10591kB time=00:00:18.50 bitrate=4689.5kbits/s speed=0.999x    frame=  482 fps= 25 q=33.0 size=   10591kB time=00:00:18.79 bitrate=4616.6kbits/s speed=0.988x    frame=  489 fps= 25 q=33.0 size=   10591kB time=00:00:19.08 bitrate=4546.2kbits/s speed=0.977x    frame=  500 fps= 25 q=34.0 Lsize=   12667kB time=00:00:20.79 bitrate=4990.6kbits/s speed=1.05x    
video:12662kB audio:0kB subtitle:0kB other streams:0kB global headers:0kB muxing overhead: 0.038114%
bench: utime=0.820s
bench: maxrss=1191816kB
